HIERARCHY
ROOT Hips
{
    OFFSET 0.000000 0.000000 0.000000
    CHANNELS 6 Xposition Yposition Zposition Zrotation Xrotation Yrotation
    JOINT Spine
    {
        OFFSET -0.000000 14.517291 0.000000
        CHANNELS 3 Zrotation Xrotation Yrotation
        JOINT Spine1
        {
            OFFSET -0.000000 37.558300 0.000000
            CHANNELS 3 Zrotation Xrotation Yrotation
            JOINT Neck
            {
                OFFSET -0.000000 37.404057 3.400369
                CHANNELS 3 Zrotation Xrotation Yrotation
                JOINT Head
                {
                    OFFSET -0.000000 24.785618 -3.540803
                    CHANNELS 3 Zrotation Xrotation Yrotation
                    End Site
                    {
                        OFFSET -0.000000 35.408028 0.000000
                    }
                }
            }
            JOINT LeftShoulder
            {
                OFFSET 6.992933 33.973492 -0.192664
                CHANNELS 3 Zrotation Xrotation Yrotation
                JOINT LeftArm
                {
                    OFFSET 21.527611 0.000000 0.000000
                    CHANNELS 3 Zrotation Xrotation Yrotation
                    JOINT LeftForeArm
                    {
                        OFFSET 56.353916 0.000000 0.000000
                        CHANNELS 3 Zrotation Xrotation Yrotation
                        JOINT LeftHand
                        {
                            OFFSET 47.774071 0.000000 0.000000
                            CHANNELS 3 Zrotation Xrotation Yrotation
                            End Site
                            {
                                OFFSET 26.556021 0.000000 0.000000
                            }
                        }
                    }
                }
            }
            JOINT RightShoulder
            {
                OFFSET -7.065357 33.973492 -0.192664
                CHANNELS 3 Zrotation Xrotation Yrotation
                JOINT RightArm
                {
                    OFFSET -21.527611 0.000000 0.000000
                    CHANNELS 3 Zrotation Xrotation Yrotation
                    JOINT RightForeArm
                    {
                        OFFSET -56.353916 0.000000 0.000000
                        CHANNELS 3 Zrotation Xrotation Yrotation
                        JOINT RightHand
                        {
                            OFFSET -47.774071 0.000000 0.000000
                            CHANNELS 3 Zrotation Xrotation Yrotation
                            End Site
                            {
                                OFFSET -26.556021 0.000000 0.000000
                            }
                        }
                    }
                }
            }
        }
    }
    JOINT LeftUpLeg
    {
        OFFSET 17.704014 0.000000 0.000000
        CHANNELS 3 Zrotation Xrotation Yrotation
        JOINT LeftLeg
        {
            OFFSET -0.000000 -81.181816 0.000000
            CHANNELS 3 Zrotation Xrotation Yrotation
            JOINT LeftFoot
            {
                OFFSET -0.000000 -62.821102 0.000000
                CHANNELS 3 Zrotation Xrotation Yrotation
                JOINT LeftToeBase
                {
                    OFFSET -0.000000 -11.507608 26.556021
                    CHANNELS 3 Zrotation Xrotation Yrotation
                    End Site
                    {
                        OFFSET -0.000000 0.000000 7.081605
                    }
                }
            }
        }
    }
    JOINT RightUpLeg
    {
        OFFSET -17.704014 0.000000 0.000000
        CHANNELS 3 Zrotation Xrotation Yrotation
        JOINT RightLeg
        {
            OFFSET -0.000000 -81.181816 0.000000
            CHANNELS 3 Zrotation Xrotation Yrotation
            JOINT RightFoot
            {
                OFFSET -0.000000 -62.821102 0.000000
                CHANNELS 3 Zrotation Xrotation Yrotation
                JOINT RightToeBase
                {
                    OFFSET -0.000000 -11.507608 26.556021
                    CHANNELS 3 Zrotation Xrotation Yrotation
                    End Site
                    {
                        OFFSET -0.000000 0.000000 7.081605
                    }
                }
            }
        }
    }
}
MOTION
Frames:    12
Frame Time:    0.008333
-14.228064    152.007492    -98.125351    3.251209    -6.210248    46.086628    -2.773362    0.205279    -2.101851    1.076584    1.620649    -0.717854    -3.501601    3.676490    -18.843327    15.496321    3.723149    -17.588793    8.312186    0.449428    -18.259190    -14.967651    0.319364    -44.033447    -3.120465    -26.719778    -100.782791    -17.791151    -25.919750    -29.146242    1.504290    12.872108    -6.279210    35.631138    18.178007    42.994411    -12.413753    0.731942    32.885494    -26.748083    -2.868070    29.885416    18.033867    -1.772743    -5.066193    -18.739311    40.400799    -20.389441    7.199295    -30.880785    50.678997    0.000000    0.000000    0.000000    -24.417675    -15.689765    -24.999191    10.759339    31.384077    -18.878138    7.084080    6.438027    -7.502237    0.000000    0.000000    0.000000    
-14.215383    152.009033    -98.122040    3.245198    -6.211468    46.081028    -2.764044    0.187312    -2.089388    1.033319    1.628047    -0.713059    -3.443282    3.708820    -18.835552    15.483203    3.675830    -17.583401    8.161014    0.657640    -18.182251    -15.500627    0.516643    -44.547848    -2.775428    -27.362577    -100.656601    -17.859730    -26.195143    -28.978910    1.539917    12.884513    -6.297677    35.606117    18.161030    43.033253    -12.413942    0.743381    32.890881    -26.775496    -2.868474    29.904190    18.035683    -1.767298    -5.066644    -18.734316    40.396027    -20.406239    7.212514    -30.871124    50.684330    0.000000    0.000000    0.000000    -24.412901    -15.687748    -25.007086    10.753074    31.379595    -18.890230    7.088624    6.439091    -7.465779    0.000000    0.000000    0.000000    
-14.201842    152.015213    -98.121628    3.245920    -6.214556    46.079075    -2.759077    0.165428    -2.085069    1.000883    1.655833    -0.711225    -3.419811    3.697364    -18.833643    15.481782    3.692921    -17.586264    7.994025    0.851759    -18.092697    -16.019459    0.720288    -45.051666    -2.449497    -27.974451    -100.539894    -17.908833    -26.470959    -28.802509    1.545123    12.876205    -6.287395    35.606838    18.153296    43.039993    -12.423976    0.747197    32.911392    -26.794170    -2.861140    29.890875    18.034182    -1.756501    -5.070874    -18.738703    40.383652    -20.406961    7.200545    -30.880430    50.694798    0.000000    0.000000    0.000000    -24.412477    -15.676556    -25.014494    10.747388    31.368395    -18.879696    7.083355    6.453348    -7.463231    0.000000    0.000000    0.000000    
-14.187975    152.017914    -98.113922    3.250196    -6.213094    46.077732    -2.764443    0.153513    -2.078148    0.965440    1.663865    -0.708357    -3.388169    3.729492    -18.843046    15.495450    3.664715    -17.595592    7.834799    1.054955    -17.985439    -16.304913    1.286209    -45.597275    -1.831934    -29.116112    -100.327232    -18.045376    -26.952143    -28.641298    1.559533    12.882374    -6.289154    35.608257    18.151489    43.053368    -12.429331    0.723549    32.936375    -26.798050    -2.882402    29.895279    18.025948    -1.746467    -5.071549    -18.728834    40.384666    -20.419455    7.210883    -30.880051    50.705589    0.000000    0.000000    0.000000    -24.414354    -15.668226    -25.015663    10.743073    31.364178    -18.879406    7.082376    6.448257    -7.463265    0.000000    0.000000    0.000000    
-14.173952    152.022110    -98.110031    3.243248    -6.205653    46.067482    -2.759235    0.111004    -2.066566    0.913745    1.698207    -0.703770    -3.334885    3.749641    -18.843670    15.492716    3.634527    -17.599247    7.681974    1.273085    -17.896109    -16.803511    1.444942    -46.100750    -1.524243    -29.632030    -100.197235    -18.104713    -27.154163    -28.502432    1.584837    12.872975    -6.281443    35.607018    18.145626    43.055241    -12.430449    0.713127    32.948883    -26.803274    -2.892218    29.894281    18.018932    -1.742701    -5.075214    -18.730417    40.368862    -20.393375    7.202157    -30.878738    50.693890    0.000000    0.000000    0.000000    -24.415140    -15.672712    -25.022577    10.737707    31.356583    -18.850784    7.069923    6.453380    -7.461040    0.000000    0.000000    0.000000    
-14.160898    152.023621    -98.102486    3.234681    -6.201815    46.062756    -2.760307    0.089394    -2.053629    0.885555    1.708447    -0.698974    -3.301054    3.769473    -18.851614    15.486840    3.608032    -17.609161    7.519434    1.483004    -17.804638    -17.474796    1.362920    -46.583977    -1.471337    -29.695211    -100.179222    -18.034416    -27.208822    -28.301363    1.594595    12.878621    -6.302858    35.615459    18.133886    43.080082    -12.433730    0.719787    32.953304    -26.818174    -2.890137    29.901569    18.019035    -1.742765    -5.074587    -18.729620    40.365883    -20.414310    7.218201    -30.875717    50.730797    0.000000    0.000000    0.000000    -24.411860    -15.672228    -25.014311    10.742172    31.344126    -18.873135    7.063388    6.455207    -7.439965    0.000000    0.000000    0.000000    
-14.144739    152.025055    -98.091873    3.229943    -6.205040    46.058849    -2.757659    0.065242    -2.045249    0.859787    1.728043    -0.695681    -3.287552    3.794297    -18.854963    15.505225    3.584687    -17.609879    7.359449    1.690272    -17.714951    -17.692820    1.956654    -47.082771    -0.841043    -30.798113    -99.960503    -18.203964    -27.651888    -28.160810    1.596822    12.872671    -6.312661    35.614670    18.164801    43.098476    -12.468700    0.681328    32.947609    -26.778126    -2.908709    29.906530    18.022120    -1.733327    -5.093495    -18.741266    40.357006    -20.390047    7.212734    -30.884161    50.723934    0.000000    0.000000    0.000000    -24.407160    -15.664306    -25.001263    10.753709    31.337030    -18.872410    7.074152    6.445397    -7.463404    0.000000    0.000000    0.000000    
-14.134177    152.027756    -98.081085    3.219813    -6.204486    46.051430    -2.753859    0.036760    -2.032822    0.817933    1.754866    -0.690927    -3.227065    3.791906    -18.859655    15.478541    3.571738    -17.622841    7.229442    1.868739    -17.621115    -18.245190    2.085971    -47.544167    -0.665612    -31.085299    -99.931938    -18.173382    -27.809610    -27.896379    1.618003    12.867175    -6.319759    35.626137    18.161940    43.102100    -12.483870    0.666999    32.964191    -26.757393    -2.913410    29.917330    18.026114    -1.725942    -5.108115    -18.749826    40.343472    -20.369005    7.226799    -30.888447    50.719505    0.000000    0.000000    0.000000    -24.394344    -15.664824    -25.004803    10.740363    31.329336    -18.856531    7.070163    6.441520    -7.453606    0.000000    0.000000    0.000000    
-14.121257    152.028732    -98.068275    3.208793    -6.210638    46.044796    -2.751532    0.017707    -2.019492    0.792202    1.771233    -0.686032    -3.190497    3.798385    -18.862358    15.473583    3.554170    -17.628275    7.091264    2.075481    -17.530920    -18.831343    2.130071    -48.001587    -0.585497    -31.240938    -99.946777    -18.145159    -27.927635    -27.664833    1.631805    12.858917    -6.333721    35.641190    18.151653    43.102200    -12.477301    0.652635    32.993404    -26.760429    -2.920706    29.892254    18.036949    -1.714085    -5.128335    -18.762403    40.325169    -20.361725    7.244258    -30.893654    50.746170    0.000000    0.000000    0.000000    -24.377214    -15.659731    -25.002617    10.738100    31.320391    -18.856546    7.063506    6.431733    -7.443254    0.000000    0.000000    0.000000    
-14.107704    152.030426    -98.056313    3.204113    -6.213881    46.038158    -2.757943    -0.004197    -2.005582    0.775604    1.794971    -0.681143    -3.151123    3.815056    -18.862354    15.457281    3.524698    -17.631044    6.953322    2.251142    -17.450798    -19.387728    2.253356    -48.423428    -0.500483    -31.435997    -99.982346    -18.067051    -28.098879    -27.387846    1.626414    12.859431    -6.338960    35.659554    18.154308    43.110271    -12.506911    0.642561    32.985950    -26.737152    -2.917175    29.896011    18.039658    -1.696967    -5.128181    -18.755539    40.309185    -20.373131    7.247352    -30.907240    50.756588    0.000000    0.000000    0.000000    -24.366039    -15.651893    -24.999966    10.733221    31.310488    -18.853874    7.051359    6.427215    -7.435399    0.000000    0.000000    0.000000    
-14.094368    152.033524    -98.042854    3.202188    -6.212504    46.038197    -2.767714    -0.025809    -1.998540    0.746169    1.814826    -0.678358    -3.111531    3.839319    -18.869738    15.464190    3.500945    -17.640127    6.826283    2.446574    -17.360920    -19.914524    2.379211    -48.847912    -0.377481    -31.618223    -100.005630    -17.936663    -28.226404    -27.121374    1.638153    12.841714    -6.345905    35.675701    18.158709    43.105659    -12.505268    0.623608    32.995636    -26.738115    -2.932013    29.881254    18.037470    -1.682688    -5.140591    -18.750765    40.286671    -20.369839    7.236638    -30.911310    50.761070    0.000000    0.000000    0.000000    -24.361689    -15.642000    -24.996010    10.739693    31.299026    -18.860840    7.041506    6.417130    -7.449241    0.000000    0.000000    0.000000    
-14.080876    152.038910    -98.028351    3.196814    -6.215934    46.038895    -2.772135    -0.041682    -1.992169    0.721914    1.832164    -0.675800    -3.062596    3.852610    -18.869619    15.440413    3.466957    -17.644001    6.693153    2.645104    -17.262001    -20.325481    2.640944    -49.271149    -0.183895    -31.981451    -100.011337    -17.917461    -28.426676    -26.963367    1.650759    12.827650    -6.363091    35.673428    18.179323    43.112034    -12.523288    0.605623    32.998596    -26.719841    -2.936261    29.870308    18.041693    -1.668163    -5.146187    -18.741301    40.269505    -20.377663    7.243205    -30.911537    50.762993    0.000000    0.000000    0.000000    -24.348715    -15.630020    -24.989288    10.735766    31.285788    -18.856153    7.046000    6.409901    -7.458436    0.000000    0.000000    0.000000    
